<svg xmlns="http://www.w3.org/2000/svg" xmlns:xlink="http://www.w3.org/1999/xlink" zoomAndPan="magnify" preserveAspectRatio="xMidYMid meet" version="1.0" viewBox="89.51 163.92 204.19 17.27"><defs><g/></defs><g fill="#c49f5a" fill-opacity="1"><g transform="translate(87.399404, 180.947094)"><g><path d="M 4.328125 0 L 2.109375 0 L 2.109375 -16.8125 L 4.328125 -16.8125 Z M 4.328125 0 "/></g></g></g><g fill="#c49f5a" fill-opacity="1"><g transform="translate(96.191419, 180.947094)"><g><path d="M 14.875 0 L 12.640625 0 L 4.171875 -12.953125 L 4.171875 0 L 1.953125 0 L 1.953125 -16.8125 L 4.171875 -16.8125 L 12.65625 -3.796875 L 12.65625 -16.8125 L 14.875 -16.8125 Z M 14.875 0 "/></g></g></g><g fill="#c49f5a" fill-opacity="1"><g transform="translate(115.404671, 180.947094)"><g><path d="M 1.953125 0 L 1.953125 -16.8125 L 6.6875 -16.8125 C 8.15625 -16.8125 9.453125 -16.488281 10.578125 -15.84375 C 11.703125 -15.195312 12.566406 -14.273438 13.171875 -13.078125 C 13.785156 -11.890625 14.097656 -10.519531 14.109375 -8.96875 L 14.109375 -7.890625 C 14.109375 -6.304688 13.800781 -4.914062 13.1875 -3.71875 C 12.570312 -2.53125 11.695312 -1.613281 10.5625 -0.96875 C 9.425781 -0.332031 8.109375 -0.0078125 6.609375 0 Z M 4.171875 -14.984375 L 4.171875 -1.8125 L 6.5 -1.8125 C 8.207031 -1.8125 9.535156 -2.34375 10.484375 -3.40625 C 11.429688 -4.46875 11.90625 -5.976562 11.90625 -7.9375 L 11.90625 -8.921875 C 11.90625 -10.828125 11.457031 -12.304688 10.5625 -13.359375 C 9.664062 -14.421875 8.394531 -14.960938 6.75 -14.984375 Z M 4.171875 -14.984375 "/></g></g></g><g fill="#c49f5a" fill-opacity="1"><g transform="translate(133.26767, 180.947094)"><g><path d="M 13.78125 -16.8125 L 13.78125 -5.375 C 13.769531 -3.789062 13.269531 -2.492188 12.28125 -1.484375 C 11.289062 -0.484375 9.953125 0.078125 8.265625 0.203125 L 7.671875 0.234375 C 5.835938 0.234375 4.375 -0.257812 3.28125 -1.25 C 2.1875 -2.25 1.628906 -3.617188 1.609375 -5.359375 L 1.609375 -16.8125 L 3.8125 -16.8125 L 3.8125 -5.421875 C 3.8125 -4.203125 4.144531 -3.253906 4.8125 -2.578125 C 5.476562 -1.910156 6.429688 -1.578125 7.671875 -1.578125 C 8.929688 -1.578125 9.894531 -1.910156 10.5625 -2.578125 C 11.226562 -3.253906 11.5625 -4.195312 11.5625 -5.40625 L 11.5625 -16.8125 Z M 13.78125 -16.8125 "/></g></g></g><g fill="#c49f5a" fill-opacity="1"><g transform="translate(150.957549, 180.947094)"><g><path d="M 6.90625 -7.484375 C 5 -8.035156 3.613281 -8.707031 2.75 -9.5 C 1.882812 -10.300781 1.453125 -11.285156 1.453125 -12.453125 C 1.453125 -13.773438 1.976562 -14.867188 3.03125 -15.734375 C 4.09375 -16.597656 5.472656 -17.03125 7.171875 -17.03125 C 8.328125 -17.03125 9.351562 -16.804688 10.25 -16.359375 C 11.15625 -15.921875 11.859375 -15.304688 12.359375 -14.515625 C 12.859375 -13.734375 13.109375 -12.878906 13.109375 -11.953125 L 10.875 -11.953125 C 10.875 -12.960938 10.550781 -13.757812 9.90625 -14.34375 C 9.257812 -14.925781 8.347656 -15.21875 7.171875 -15.21875 C 6.078125 -15.21875 5.222656 -14.972656 4.609375 -14.484375 C 3.992188 -14.003906 3.6875 -13.335938 3.6875 -12.484375 C 3.6875 -11.804688 3.976562 -11.226562 4.5625 -10.75 C 5.144531 -10.28125 6.132812 -9.847656 7.53125 -9.453125 C 8.925781 -9.054688 10.019531 -8.625 10.8125 -8.15625 C 11.601562 -7.6875 12.1875 -7.132812 12.5625 -6.5 C 12.945312 -5.863281 13.140625 -5.117188 13.140625 -4.265625 C 13.140625 -2.910156 12.609375 -1.820312 11.546875 -1 C 10.484375 -0.175781 9.0625 0.234375 7.28125 0.234375 C 6.125 0.234375 5.046875 0.015625 4.046875 -0.421875 C 3.046875 -0.867188 2.273438 -1.476562 1.734375 -2.25 C 1.191406 -3.019531 0.921875 -3.894531 0.921875 -4.875 L 3.15625 -4.875 C 3.15625 -3.851562 3.53125 -3.046875 4.28125 -2.453125 C 5.03125 -1.867188 6.03125 -1.578125 7.28125 -1.578125 C 8.445312 -1.578125 9.34375 -1.816406 9.96875 -2.296875 C 10.59375 -2.773438 10.90625 -3.425781 10.90625 -4.25 C 10.90625 -5.070312 10.613281 -5.707031 10.03125 -6.15625 C 9.457031 -6.601562 8.414062 -7.046875 6.90625 -7.484375 Z M 6.90625 -7.484375 "/></g></g></g><g fill="#c49f5a" fill-opacity="1"><g transform="translate(167.343335, 180.947094)"><g/></g></g><g fill="#c49f5a" fill-opacity="1"><g transform="translate(175.558313, 180.947094)"><g><path d="M 4.171875 -6.578125 L 4.171875 0 L 1.953125 0 L 1.953125 -16.8125 L 8.15625 -16.8125 C 9.988281 -16.8125 11.425781 -16.335938 12.46875 -15.390625 C 13.507812 -14.453125 14.03125 -13.210938 14.03125 -11.671875 C 14.03125 -10.035156 13.519531 -8.773438 12.5 -7.890625 C 11.488281 -7.015625 10.03125 -6.578125 8.125 -6.578125 Z M 4.171875 -8.390625 L 8.15625 -8.390625 C 9.332031 -8.390625 10.238281 -8.664062 10.875 -9.21875 C 11.507812 -9.78125 11.828125 -10.585938 11.828125 -11.640625 C 11.828125 -12.640625 11.507812 -13.441406 10.875 -14.046875 C 10.238281 -14.648438 9.375 -14.960938 8.28125 -14.984375 L 4.171875 -14.984375 Z M 4.171875 -8.390625 "/></g></g></g><g fill="#c49f5a" fill-opacity="1"><g transform="translate(192.832727, 180.947094)"><g><path d="M 8.109375 -6.796875 L 4.171875 -6.796875 L 4.171875 0 L 1.9375 0 L 1.9375 -16.8125 L 7.5 -16.8125 C 9.394531 -16.8125 10.851562 -16.378906 11.875 -15.515625 C 12.894531 -14.648438 13.40625 -13.394531 13.40625 -11.75 C 13.40625 -10.707031 13.117188 -9.796875 12.546875 -9.015625 C 11.984375 -8.234375 11.195312 -7.648438 10.1875 -7.265625 L 14.140625 -0.140625 L 14.140625 0 L 11.765625 0 Z M 4.171875 -8.609375 L 7.578125 -8.609375 C 8.671875 -8.609375 9.539062 -8.890625 10.1875 -9.453125 C 10.84375 -10.023438 11.171875 -10.789062 11.171875 -11.75 C 11.171875 -12.789062 10.859375 -13.585938 10.234375 -14.140625 C 9.617188 -14.691406 8.726562 -14.972656 7.5625 -14.984375 L 4.171875 -14.984375 Z M 4.171875 -8.609375 "/></g></g></g><g fill="#c49f5a" fill-opacity="1"><g transform="translate(209.749385, 180.947094)"><g><path d="M 11.453125 -7.765625 L 4.171875 -7.765625 L 4.171875 -1.8125 L 12.625 -1.8125 L 12.625 0 L 1.953125 0 L 1.953125 -16.8125 L 12.515625 -16.8125 L 12.515625 -14.984375 L 4.171875 -14.984375 L 4.171875 -9.578125 L 11.453125 -9.578125 Z M 11.453125 -7.765625 "/></g></g></g><g fill="#c49f5a" fill-opacity="1"><g transform="translate(225.54659, 180.947094)"><g><path d="M 4.8125 -16.8125 L 10.3125 -3.09375 L 15.796875 -16.8125 L 18.671875 -16.8125 L 18.671875 0 L 16.453125 0 L 16.453125 -6.546875 L 16.671875 -13.609375 L 11.15625 0 L 9.453125 0 L 3.953125 -13.578125 L 4.171875 -6.546875 L 4.171875 0 L 1.953125 0 L 1.953125 -16.8125 Z M 4.8125 -16.8125 "/></g></g></g><g fill="#c49f5a" fill-opacity="1"><g transform="translate(248.545186, 180.947094)"><g><path d="M 4.328125 0 L 2.109375 0 L 2.109375 -16.8125 L 4.328125 -16.8125 Z M 4.328125 0 "/></g></g></g><g fill="#c49f5a" fill-opacity="1"><g transform="translate(257.337199, 180.947094)"><g><path d="M 13.78125 -16.8125 L 13.78125 -5.375 C 13.769531 -3.789062 13.269531 -2.492188 12.28125 -1.484375 C 11.289062 -0.484375 9.953125 0.078125 8.265625 0.203125 L 7.671875 0.234375 C 5.835938 0.234375 4.375 -0.257812 3.28125 -1.25 C 2.1875 -2.25 1.628906 -3.617188 1.609375 -5.359375 L 1.609375 -16.8125 L 3.8125 -16.8125 L 3.8125 -5.421875 C 3.8125 -4.203125 4.144531 -3.253906 4.8125 -2.578125 C 5.476562 -1.910156 6.429688 -1.578125 7.671875 -1.578125 C 8.929688 -1.578125 9.894531 -1.910156 10.5625 -2.578125 C 11.226562 -3.253906 11.5625 -4.195312 11.5625 -5.40625 L 11.5625 -16.8125 Z M 13.78125 -16.8125 "/></g></g></g><g fill="#c49f5a" fill-opacity="1"><g transform="translate(275.027078, 180.947094)"><g><path d="M 4.8125 -16.8125 L 10.3125 -3.09375 L 15.796875 -16.8125 L 18.671875 -16.8125 L 18.671875 0 L 16.453125 0 L 16.453125 -6.546875 L 16.671875 -13.609375 L 11.15625 0 L 9.453125 0 L 3.953125 -13.578125 L 4.171875 -6.546875 L 4.171875 0 L 1.953125 0 L 1.953125 -16.8125 Z M 4.8125 -16.8125 "/></g></g></g></svg>